<?xml version="1.0" encoding="utf-8"?>
<!-- Generator: Adobe Illustrator 27.0.0, SVG Export Plug-In . SVG Version: 6.00 Build 0)  -->
<svg version="1.1" id="Layer_1" xmlns="http://www.w3.org/2000/svg" xmlns:xlink="http://www.w3.org/1999/xlink" x="0px" y="0px"
	 viewBox="0 0 567 756" style="enable-background:new 0 0 567 756;" xml:space="preserve">
<style type="text/css">
	.st0{fill:none;stroke:#000000;stroke-width:0.5;stroke-linecap:square;}
	.st1{fill:none;stroke:#E19D3E;stroke-width:0.75;stroke-linejoin:round;stroke-miterlimit:10;}
	.st2{fill:none;stroke:#5D86C2;stroke-width:0.75;stroke-linejoin:round;stroke-miterlimit:10;}
</style>
<line id="y_axis" class="st0" x1="190.14" y1="231.4" x2="190.14" y2="77.72"/>
<line id="x_axis" class="st0" x1="445.77" y1="231.4" x2="190.14" y2="231.4"/>
<polyline id="restricted" class="st1" points="190.19,77.74 193.03,77.74 193.03,82.37 195.86,82.37 195.86,95.26 198.7,95.26 
	198.7,102.3 201.54,102.3 201.54,105.73 204.38,105.73 204.38,108.75 207.22,108.75 207.22,111.36 210.06,111.36 210.06,112.17 
	212.9,112.17 212.9,114.99 215.74,114.99 215.74,117.2 218.58,117.2 218.58,118.21 221.42,118.21 221.42,120.02 224.26,120.02 
	224.26,122.24 227.1,122.24 227.1,123.44 229.94,123.44 229.94,125.86 232.78,125.86 232.78,126.26 235.62,126.26 235.62,127.07 
	238.46,127.07 238.46,127.67 241.3,127.67 241.3,128.07 244.14,128.07 244.14,128.88 246.98,128.88 246.98,129.49 249.82,129.49 
	249.82,130.49 252.65,130.49 252.65,130.89 255.49,130.89 255.49,131.9 258.33,131.9 258.33,132.3 261.17,132.3 261.17,133.11 
	264.01,133.11 264.01,133.92 266.85,133.92 266.85,134.31 272.53,134.31 272.53,134.92 275.37,134.92 275.37,135.73 281.05,135.73 
	281.05,135.93 286.73,135.93 286.73,136.33 289.57,136.33 289.57,136.73 292.41,136.73 292.41,136.93 295.25,136.93 295.25,137.74 
	300.93,137.74 300.93,137.94 306.6,137.94 306.6,138.34 309.44,138.34 309.44,138.55 329.32,138.55 329.32,138.75 337.84,138.75 
	337.84,139.15 346.36,139.15 346.36,139.35 352.04,139.35 352.04,139.95 360.55,139.95 360.55,140.36 363.39,140.36 363.39,140.76 
	366.23,140.76 366.23,140.96 374.75,140.96 374.75,141.16 377.59,141.16 377.59,141.36 388.95,141.36 388.95,141.56 397.47,141.56 
	397.47,141.76 403.15,141.76 403.15,141.97 431.54,141.97 431.54,142.37 437.22,142.37 437.22,142.57 445.74,142.57 "/>
<polyline id="standard" class="st2" points="190.19,77.74 193.03,77.74 193.03,81.49 195.86,81.49 195.86,94.49 198.7,94.49 
	198.7,99.41 201.54,99.41 201.54,102.75 204.38,102.75 204.38,104.72 207.22,104.72 207.22,107.28 210.06,107.28 210.06,109.45 
	212.9,109.45 212.9,111.62 215.74,111.62 215.74,113.98 218.58,113.98 218.58,115.95 221.42,115.95 221.42,116.34 224.26,116.34 
	224.26,118.12 227.1,118.12 227.1,119.1 229.94,119.1 229.94,120.28 232.78,120.28 232.78,121.66 235.62,121.66 235.62,123.43 
	238.46,123.43 238.46,125.2 241.3,125.2 241.3,126 244.14,126 244.14,126.78 246.98,126.78 246.98,127.37 249.82,127.37 
	249.82,127.96 252.65,127.96 252.65,128.36 255.49,128.36 255.49,129.14 258.33,129.14 258.33,129.73 261.17,129.73 261.17,130.13 
	264.01,130.13 264.01,130.72 266.85,130.72 266.85,131.12 269.69,131.12 269.69,131.71 272.53,131.71 272.53,132.1 275.37,132.1 
	275.37,132.49 278.21,132.49 278.21,133.08 281.05,133.08 281.05,133.67 283.89,133.67 283.89,133.87 286.73,133.87 286.73,134.46 
	289.57,134.46 289.57,134.66 292.41,134.66 292.41,134.85 295.25,134.85 295.25,135.45 300.93,135.45 300.93,135.65 303.77,135.65 
	303.77,135.84 306.6,135.84 306.6,136.24 312.28,136.24 312.28,136.43 315.12,136.43 315.12,136.63 320.8,136.63 320.8,136.83 
	323.64,136.83 323.64,137.22 329.32,137.22 329.32,137.42 332.16,137.42 332.16,137.61 337.84,137.61 337.84,137.81 343.52,137.81 
	343.52,138.01 346.36,138.01 346.36,138.4 357.71,138.4 357.71,138.79 360.55,138.79 360.55,139.19 363.39,139.19 363.39,139.38 
	366.23,139.38 366.23,139.58 371.92,139.58 371.92,139.98 377.59,139.98 377.59,140.18 388.95,140.18 388.95,140.37 397.47,140.37 
	397.47,140.77 403.15,140.77 403.15,140.96 411.67,140.96 411.67,141.16 417.34,141.16 417.34,141.36 423.02,141.36 423.02,141.55 
	425.86,141.55 425.86,141.75 431.54,141.75 431.54,141.95 445.74,141.95 445.74,142.34 "/>
</svg>
